<mxfile host="app.diagrams.net" modified="2023-09-04T10:26:06.092Z" agent="Mozilla/5.0 (X11; Ubuntu; Linux x86_64; rv:109.0) Gecko/20100101 Firefox/117.0" etag="fi80JOUJ7UeX-i96Z7XI" version="21.7.2" type="device">
  <diagram name="Page-1" id="8_IFPCRXsBgLcG05UPIM">
    <mxGraphModel dx="2284" dy="766" grid="1" gridSize="10" guides="1" tooltips="1" connect="1" arrows="1" fold="1" page="1" pageScale="1" pageWidth="850" pageHeight="1100" math="0" shadow="0">
      <root>
        <mxCell id="0" />
        <mxCell id="1" parent="0" />
        <mxCell id="PoIcjcwzjBEKSIvmz-n4-14" style="edgeStyle=orthogonalEdgeStyle;rounded=0;orthogonalLoop=1;jettySize=auto;html=1;exitX=0.5;exitY=1;exitDx=0;exitDy=0;" parent="1" edge="1">
          <mxGeometry relative="1" as="geometry">
            <mxPoint x="645" y="713" as="sourcePoint" />
            <mxPoint x="645" y="713" as="targetPoint" />
          </mxGeometry>
        </mxCell>
        <mxCell id="jT8k6wzcKQKTVynHVWWS-5" value="&lt;div&gt;Disciplina&lt;/div&gt;&lt;div&gt;&lt;br&gt;&lt;/div&gt;" style="swimlane;fontStyle=1;align=center;verticalAlign=top;childLayout=stackLayout;horizontal=1;startSize=26;horizontalStack=0;resizeParent=1;resizeParentMax=0;resizeLast=0;collapsible=1;marginBottom=0;whiteSpace=wrap;html=1;" parent="1" vertex="1">
          <mxGeometry x="440" y="530" width="320" height="160" as="geometry" />
        </mxCell>
        <mxCell id="jT8k6wzcKQKTVynHVWWS-6" value="&lt;div&gt;&amp;nbsp;- nome: String&lt;/div&gt;&lt;div&gt;- id: String&lt;br&gt;&lt;/div&gt;&lt;div&gt;- aluno: Set&amp;lt;Pessoa&amp;gt;&lt;br&gt;&lt;/div&gt;&lt;div&gt;- isAtiva: boolean&lt;br&gt;&lt;/div&gt;&lt;div&gt;&lt;br&gt;&lt;/div&gt;" style="text;strokeColor=none;fillColor=none;align=left;verticalAlign=top;spacingLeft=4;spacingRight=4;overflow=hidden;rotatable=0;points=[[0,0.5],[1,0.5]];portConstraint=eastwest;whiteSpace=wrap;html=1;" parent="jT8k6wzcKQKTVynHVWWS-5" vertex="1">
          <mxGeometry y="26" width="320" height="64" as="geometry" />
        </mxCell>
        <mxCell id="jT8k6wzcKQKTVynHVWWS-7" value="" style="line;strokeWidth=1;fillColor=none;align=left;verticalAlign=middle;spacingTop=-1;spacingLeft=3;spacingRight=3;rotatable=0;labelPosition=right;points=[];portConstraint=eastwest;strokeColor=inherit;" parent="jT8k6wzcKQKTVynHVWWS-5" vertex="1">
          <mxGeometry y="90" width="320" height="8" as="geometry" />
        </mxCell>
        <mxCell id="jT8k6wzcKQKTVynHVWWS-8" value="&lt;div&gt;+ adicionarAlunos(aluno: Pessoa): void&lt;br&gt;&lt;/div&gt;&lt;div&gt;+ renomear (nome: String) : void&lt;/div&gt;&lt;div&gt;+ imprimirAlunos(): void&lt;/div&gt;&lt;div&gt;- verificarAtivacao(): void&lt;br&gt;&lt;/div&gt;" style="text;strokeColor=none;fillColor=none;align=left;verticalAlign=top;spacingLeft=4;spacingRight=4;overflow=hidden;rotatable=0;points=[[0,0.5],[1,0.5]];portConstraint=eastwest;whiteSpace=wrap;html=1;" parent="jT8k6wzcKQKTVynHVWWS-5" vertex="1">
          <mxGeometry y="98" width="320" height="62" as="geometry" />
        </mxCell>
        <mxCell id="jT8k6wzcKQKTVynHVWWS-19" style="edgeStyle=orthogonalEdgeStyle;rounded=0;orthogonalLoop=1;jettySize=auto;html=1;dashed=1;endArrow=block;endFill=0;entryX=0.468;entryY=1.029;entryDx=0;entryDy=0;entryPerimeter=0;" parent="1" source="jT8k6wzcKQKTVynHVWWS-12" target="p2oYnBQOaaFBxnpKks9B-10" edge="1">
          <mxGeometry relative="1" as="geometry">
            <mxPoint x="385" y="90" as="targetPoint" />
          </mxGeometry>
        </mxCell>
        <mxCell id="jT8k6wzcKQKTVynHVWWS-12" value="&lt;div&gt;Aluno&lt;/div&gt;&lt;div&gt;&lt;br&gt;&lt;/div&gt;" style="swimlane;fontStyle=1;align=center;verticalAlign=top;childLayout=stackLayout;horizontal=1;startSize=26;horizontalStack=0;resizeParent=1;resizeParentMax=0;resizeLast=0;collapsible=1;marginBottom=0;whiteSpace=wrap;html=1;" parent="1" vertex="1">
          <mxGeometry x="230" y="310" width="350" height="150" as="geometry" />
        </mxCell>
        <mxCell id="jT8k6wzcKQKTVynHVWWS-13" value="- gradeCurricular : List&amp;lt;Disciplinas&amp;gt;" style="text;strokeColor=none;fillColor=none;align=left;verticalAlign=top;spacingLeft=4;spacingRight=4;overflow=hidden;rotatable=0;points=[[0,0.5],[1,0.5]];portConstraint=eastwest;whiteSpace=wrap;html=1;" parent="jT8k6wzcKQKTVynHVWWS-12" vertex="1">
          <mxGeometry y="26" width="350" height="26" as="geometry" />
        </mxCell>
        <mxCell id="jT8k6wzcKQKTVynHVWWS-14" value="" style="line;strokeWidth=1;fillColor=none;align=left;verticalAlign=middle;spacingTop=-1;spacingLeft=3;spacingRight=3;rotatable=0;labelPosition=right;points=[];portConstraint=eastwest;strokeColor=inherit;" parent="jT8k6wzcKQKTVynHVWWS-12" vertex="1">
          <mxGeometry y="52" width="350" height="8" as="geometry" />
        </mxCell>
        <mxCell id="jT8k6wzcKQKTVynHVWWS-15" value="&lt;div&gt;+ ralizarMatriculaNaMemoria (disciplina: Disciplina) : void&lt;/div&gt;&lt;div&gt;+ matricularEmDisciplina () : void&lt;/div&gt;&lt;div&gt;+ cancelarMatriculaDisciplina (disciplina: Disciplina) : void&lt;/div&gt;&lt;div&gt;&lt;div&gt;+ cancelarMatriculaDisciplina () : void&lt;/div&gt;&lt;div&gt;+ verGradeCurricular(): void&lt;br&gt;&lt;/div&gt;&lt;div&gt;&lt;br&gt;&lt;br&gt;&lt;/div&gt;&lt;/div&gt;&lt;div&gt;&lt;br&gt;&lt;/div&gt;&lt;div&gt;&lt;br&gt;&lt;/div&gt;" style="text;strokeColor=none;fillColor=none;align=left;verticalAlign=top;spacingLeft=4;spacingRight=4;overflow=hidden;rotatable=0;points=[[0,0.5],[1,0.5]];portConstraint=eastwest;whiteSpace=wrap;html=1;" parent="jT8k6wzcKQKTVynHVWWS-12" vertex="1">
          <mxGeometry y="60" width="350" height="90" as="geometry" />
        </mxCell>
        <mxCell id="jT8k6wzcKQKTVynHVWWS-30" style="edgeStyle=orthogonalEdgeStyle;shape=connector;rounded=0;orthogonalLoop=1;jettySize=auto;html=1;entryX=1;entryY=0.25;entryDx=0;entryDy=0;labelBackgroundColor=default;strokeColor=default;fontFamily=Helvetica;fontSize=11;fontColor=default;endArrow=block;dashed=1;endFill=0;exitX=0.5;exitY=0;exitDx=0;exitDy=0;" parent="1" target="p2oYnBQOaaFBxnpKks9B-10" edge="1">
          <mxGeometry relative="1" as="geometry">
            <mxPoint x="750" y="300" as="sourcePoint" />
            <mxPoint x="440" y="42.5" as="targetPoint" />
            <Array as="points">
              <mxPoint x="750" y="51" />
              <mxPoint x="440" y="51" />
              <mxPoint x="440" y="48" />
            </Array>
          </mxGeometry>
        </mxCell>
        <mxCell id="jT8k6wzcKQKTVynHVWWS-40" style="edgeStyle=orthogonalEdgeStyle;shape=connector;rounded=0;orthogonalLoop=1;jettySize=auto;html=1;labelBackgroundColor=default;strokeColor=default;fontFamily=Helvetica;fontSize=11;fontColor=default;endArrow=block;dashed=1;endFill=0;" parent="1" source="jT8k6wzcKQKTVynHVWWS-35" edge="1">
          <mxGeometry relative="1" as="geometry">
            <Array as="points">
              <mxPoint x="25" y="230" />
              <mxPoint x="120" y="230" />
              <mxPoint x="120" y="68" />
            </Array>
            <mxPoint x="180" y="70" as="targetPoint" />
          </mxGeometry>
        </mxCell>
        <mxCell id="jT8k6wzcKQKTVynHVWWS-35" value="&lt;div&gt;Secretario&lt;/div&gt;&lt;div&gt;&lt;br&gt;&lt;/div&gt;" style="swimlane;fontStyle=1;align=center;verticalAlign=top;childLayout=stackLayout;horizontal=1;startSize=26;horizontalStack=0;resizeParent=1;resizeParentMax=0;resizeLast=0;collapsible=1;marginBottom=0;whiteSpace=wrap;html=1;fontFamily=Helvetica;fontSize=11;fontColor=default;" parent="1" vertex="1">
          <mxGeometry x="-140" y="280" width="330" height="250" as="geometry" />
        </mxCell>
        <mxCell id="jT8k6wzcKQKTVynHVWWS-37" value="" style="line;strokeWidth=1;fillColor=none;align=left;verticalAlign=middle;spacingTop=-1;spacingLeft=3;spacingRight=3;rotatable=0;labelPosition=right;points=[];portConstraint=eastwest;strokeColor=inherit;fontFamily=Helvetica;fontSize=11;fontColor=default;" parent="jT8k6wzcKQKTVynHVWWS-35" vertex="1">
          <mxGeometry y="26" width="330" height="8" as="geometry" />
        </mxCell>
        <mxCell id="jT8k6wzcKQKTVynHVWWS-38" value="&lt;div&gt;-alterarPeriodoMatricula(): void&lt;br&gt;&lt;/div&gt;&lt;div&gt;- gerenciarCurriculo() : void&lt;/div&gt;&lt;div&gt;- visualizarDisciplina(): void&lt;/div&gt;&lt;div&gt;- adicionarDisciplina(disciplina:Disciplina): void&lt;br&gt;&lt;/div&gt;&lt;div&gt;- removerDisciplina(disciplina: Disciplina): void&lt;/div&gt;&lt;div&gt;- renomearDisciplina(disciplina: Disciplina, nome: String): void&lt;/div&gt;&lt;div&gt;- atribuirProfessor(disciplina: Disciplina, professor: Pessoa): void&lt;/div&gt;&lt;div&gt;&lt;div&gt;- visualizarProfessor(): void&lt;/div&gt;&lt;div&gt;- adicionarProfessor(professor: Professor): void&lt;/div&gt;&lt;div&gt;&lt;div&gt;&lt;div&gt;- visualizarAluno(): void&lt;/div&gt;&lt;/div&gt;&lt;/div&gt;&lt;/div&gt;&lt;div&gt;&amp;nbsp;- adicionarUsuario(pessoa: Pessoa): void&lt;/div&gt;&lt;div&gt;- removerUsuario(pessoa: Pessoa): void&lt;/div&gt;&lt;div&gt;- renomearUsuario(pessoa:Pessoa, novoNome: String): void&lt;/div&gt;" style="text;strokeColor=none;fillColor=none;align=left;verticalAlign=top;spacingLeft=4;spacingRight=4;overflow=hidden;rotatable=0;points=[[0,0.5],[1,0.5]];portConstraint=eastwest;whiteSpace=wrap;html=1;fontSize=11;fontFamily=Helvetica;fontColor=default;" parent="jT8k6wzcKQKTVynHVWWS-35" vertex="1">
          <mxGeometry y="34" width="330" height="216" as="geometry" />
        </mxCell>
        <mxCell id="jT8k6wzcKQKTVynHVWWS-45" value="Pessoa" style="swimlane;fontStyle=1;align=center;verticalAlign=top;childLayout=stackLayout;horizontal=1;startSize=26;horizontalStack=0;resizeParent=1;resizeParentMax=0;resizeLast=0;collapsible=1;marginBottom=0;whiteSpace=wrap;html=1;fontFamily=Helvetica;fontSize=11;fontColor=default;" parent="1" vertex="1">
          <mxGeometry x="-290" y="20" width="240" height="170" as="geometry" />
        </mxCell>
        <mxCell id="jT8k6wzcKQKTVynHVWWS-46" value="&lt;div&gt;- nome: String&lt;br&gt;&lt;/div&gt;&lt;div&gt;- id: String&lt;br&gt;&lt;/div&gt;&lt;div&gt;-senha: String&lt;br&gt;&lt;/div&gt;&lt;div&gt;- tipo: IPessoa&lt;br&gt;&lt;/div&gt;" style="text;strokeColor=none;fillColor=none;align=left;verticalAlign=top;spacingLeft=4;spacingRight=4;overflow=hidden;rotatable=0;points=[[0,0.5],[1,0.5]];portConstraint=eastwest;whiteSpace=wrap;html=1;fontSize=11;fontFamily=Helvetica;fontColor=default;" parent="jT8k6wzcKQKTVynHVWWS-45" vertex="1">
          <mxGeometry y="26" width="240" height="74" as="geometry" />
        </mxCell>
        <mxCell id="jT8k6wzcKQKTVynHVWWS-47" value="" style="line;strokeWidth=1;fillColor=none;align=left;verticalAlign=middle;spacingTop=-1;spacingLeft=3;spacingRight=3;rotatable=0;labelPosition=right;points=[];portConstraint=eastwest;strokeColor=inherit;fontFamily=Helvetica;fontSize=11;fontColor=default;" parent="jT8k6wzcKQKTVynHVWWS-45" vertex="1">
          <mxGeometry y="100" width="240" height="8" as="geometry" />
        </mxCell>
        <mxCell id="jT8k6wzcKQKTVynHVWWS-48" value="&lt;div&gt;+ renomear (novoNome: String): void&lt;br&gt;&lt;/div&gt;&lt;div&gt;- findTipoByString(tipo: String) : IPessoa&lt;br&gt;&lt;/div&gt;" style="text;strokeColor=none;fillColor=none;align=left;verticalAlign=top;spacingLeft=4;spacingRight=4;overflow=hidden;rotatable=0;points=[[0,0.5],[1,0.5]];portConstraint=eastwest;whiteSpace=wrap;html=1;fontSize=11;fontFamily=Helvetica;fontColor=default;" parent="jT8k6wzcKQKTVynHVWWS-45" vertex="1">
          <mxGeometry y="108" width="240" height="62" as="geometry" />
        </mxCell>
        <mxCell id="p2oYnBQOaaFBxnpKks9B-4" value="Curso" style="swimlane;fontStyle=1;align=center;verticalAlign=top;childLayout=stackLayout;horizontal=1;startSize=26;horizontalStack=0;resizeParent=1;resizeParentMax=0;resizeLast=0;collapsible=1;marginBottom=0;whiteSpace=wrap;html=1;" parent="1" vertex="1">
          <mxGeometry x="-50" y="550" width="310" height="180" as="geometry" />
        </mxCell>
        <mxCell id="p2oYnBQOaaFBxnpKks9B-5" value="&lt;div&gt;- nome: String&lt;/div&gt;&lt;div&gt;-qtdCreditos: int&lt;/div&gt;&lt;div&gt;-disciplinas: Set&amp;lt;Disciplina&amp;gt;&lt;br&gt;&lt;/div&gt;" style="text;strokeColor=none;fillColor=none;align=left;verticalAlign=top;spacingLeft=4;spacingRight=4;overflow=hidden;rotatable=0;points=[[0,0.5],[1,0.5]];portConstraint=eastwest;whiteSpace=wrap;html=1;" parent="p2oYnBQOaaFBxnpKks9B-4" vertex="1">
          <mxGeometry y="26" width="310" height="64" as="geometry" />
        </mxCell>
        <mxCell id="p2oYnBQOaaFBxnpKks9B-6" value="" style="line;strokeWidth=1;fillColor=none;align=left;verticalAlign=middle;spacingTop=-1;spacingLeft=3;spacingRight=3;rotatable=0;labelPosition=right;points=[];portConstraint=eastwest;strokeColor=inherit;" parent="p2oYnBQOaaFBxnpKks9B-4" vertex="1">
          <mxGeometry y="90" width="310" height="8" as="geometry" />
        </mxCell>
        <mxCell id="p2oYnBQOaaFBxnpKks9B-7" value="&lt;div&gt;+ adicionarDisciplina(disciplina: Disciplina): void&lt;/div&gt;&lt;div&gt;+ removerDisciplina((disciplina: Disciplina): void&lt;/div&gt;&lt;div&gt;+ imprimirDisciplinas(): void&lt;br&gt;&lt;/div&gt;" style="text;strokeColor=none;fillColor=none;align=left;verticalAlign=top;spacingLeft=4;spacingRight=4;overflow=hidden;rotatable=0;points=[[0,0.5],[1,0.5]];portConstraint=eastwest;whiteSpace=wrap;html=1;" parent="p2oYnBQOaaFBxnpKks9B-4" vertex="1">
          <mxGeometry y="98" width="310" height="82" as="geometry" />
        </mxCell>
        <mxCell id="p2oYnBQOaaFBxnpKks9B-9" style="edgeStyle=orthogonalEdgeStyle;rounded=0;orthogonalLoop=1;jettySize=auto;html=1;entryX=1.006;entryY=0.024;entryDx=0;entryDy=0;entryPerimeter=0;endArrow=diamond;endFill=1;" parent="1" source="jT8k6wzcKQKTVynHVWWS-6" target="p2oYnBQOaaFBxnpKks9B-7" edge="1">
          <mxGeometry relative="1" as="geometry" />
        </mxCell>
        <mxCell id="p2oYnBQOaaFBxnpKks9B-10" value="&lt;p style=&quot;margin:0px;margin-top:4px;text-align:center;&quot;&gt;&lt;i&gt;&amp;lt;&amp;lt;Interface&amp;gt;&amp;gt;&lt;/i&gt;&lt;br&gt;&lt;b&gt;IPessoa&lt;/b&gt;&lt;/p&gt;&lt;hr size=&quot;1&quot;&gt;&lt;hr size=&quot;1&quot;&gt;&lt;p style=&quot;margin:0px;margin-left:4px;&quot;&gt;+ exibirMenu(): void&lt;br&gt;&lt;/p&gt;" style="verticalAlign=top;align=left;overflow=fill;fontSize=12;fontFamily=Helvetica;html=1;whiteSpace=wrap;" parent="1" vertex="1">
          <mxGeometry x="190" y="30" width="190" height="70" as="geometry" />
        </mxCell>
        <mxCell id="p2oYnBQOaaFBxnpKks9B-11" style="edgeStyle=orthogonalEdgeStyle;rounded=0;orthogonalLoop=1;jettySize=auto;html=1;entryX=-0.005;entryY=0.1;entryDx=0;entryDy=0;entryPerimeter=0;endArrow=none;endFill=0;" parent="1" source="jT8k6wzcKQKTVynHVWWS-46" target="p2oYnBQOaaFBxnpKks9B-10" edge="1">
          <mxGeometry relative="1" as="geometry" />
        </mxCell>
        <mxCell id="p2oYnBQOaaFBxnpKks9B-18" value="Professor" style="swimlane;fontStyle=1;align=center;verticalAlign=top;childLayout=stackLayout;horizontal=1;startSize=26;horizontalStack=0;resizeParent=1;resizeParentMax=0;resizeLast=0;collapsible=1;marginBottom=0;whiteSpace=wrap;html=1;" parent="1" vertex="1">
          <mxGeometry x="620" y="300" width="280" height="120" as="geometry" />
        </mxCell>
        <mxCell id="p2oYnBQOaaFBxnpKks9B-19" value="- idsClasses: Set&amp;lt;String&amp;gt;" style="text;strokeColor=none;fillColor=none;align=left;verticalAlign=top;spacingLeft=4;spacingRight=4;overflow=hidden;rotatable=0;points=[[0,0.5],[1,0.5]];portConstraint=eastwest;whiteSpace=wrap;html=1;" parent="p2oYnBQOaaFBxnpKks9B-18" vertex="1">
          <mxGeometry y="26" width="280" height="26" as="geometry" />
        </mxCell>
        <mxCell id="p2oYnBQOaaFBxnpKks9B-20" value="" style="line;strokeWidth=1;fillColor=none;align=left;verticalAlign=middle;spacingTop=-1;spacingLeft=3;spacingRight=3;rotatable=0;labelPosition=right;points=[];portConstraint=eastwest;strokeColor=inherit;" parent="p2oYnBQOaaFBxnpKks9B-18" vertex="1">
          <mxGeometry y="52" width="280" height="8" as="geometry" />
        </mxCell>
        <mxCell id="p2oYnBQOaaFBxnpKks9B-21" value="&lt;div&gt;+ cadastrarEmDisciplina(disciplina:disciplina): void&lt;/div&gt;&lt;div&gt;+ imprimirDisciplinas(): void&lt;/div&gt;&lt;div&gt;+ imprimirAlunosDeDisciplina(): void&lt;br&gt;&lt;/div&gt;" style="text;strokeColor=none;fillColor=none;align=left;verticalAlign=top;spacingLeft=4;spacingRight=4;overflow=hidden;rotatable=0;points=[[0,0.5],[1,0.5]];portConstraint=eastwest;whiteSpace=wrap;html=1;" parent="p2oYnBQOaaFBxnpKks9B-18" vertex="1">
          <mxGeometry y="60" width="280" height="60" as="geometry" />
        </mxCell>
      </root>
    </mxGraphModel>
  </diagram>
</mxfile>
